<svg id="Layer_1" data-name="Layer 1" xmlns="http://www.w3.org/2000/svg" viewBox="0 0 500 500"><defs><style>.cls-1{fill:#e8e8e8;}.cls-2{fill:#c6c6c6;}.cls-3{fill:#eaac68;}.cls-4{fill:#ffcf8a;}.cls-5{fill:#f9b96b;}.cls-6{fill:none;stroke:#000;stroke-linecap:round;stroke-linejoin:round;stroke-width:15px;}</style></defs><title>sheep_1</title><path class="cls-1" d="M492.28,231a59.06,59.06,0,0,0-30.09-51.49,48.09,48.09,0,0,0-35.7-59.68,48.1,48.1,0,0,0-62.64-55.27A48.07,48.07,0,0,0,302,38.77a59.12,59.12,0,0,0-104,0,48.07,48.07,0,0,0-61.84,25.78,48.12,48.12,0,0,0-62.64,55.27,48.09,48.09,0,0,0-35.7,59.68,59.1,59.1,0,0,0,0,103,48.09,48.09,0,0,0,35.7,59.68,48.1,48.1,0,0,0,62.64,55.27A48.1,48.1,0,0,0,198,423.21a59.12,59.12,0,0,0,104,0,48.1,48.1,0,0,0,61.84-25.78,48.12,48.12,0,0,0,62.64-55.27,48.09,48.09,0,0,0,35.7-59.68A59.06,59.06,0,0,0,492.28,231Z"/><path class="cls-2" d="M492.28,231a58.92,58.92,0,0,0-20.22-44.49A54.87,54.87,0,0,1,447,251.79a44.63,44.63,0,0,1-33.14,55.4,45.13,45.13,0,0,1,.92,9.06,44.63,44.63,0,0,1-59.07,42.25,44.64,44.64,0,0,1-57.4,23.94,54.9,54.9,0,0,1-96.58,0,44.64,44.64,0,0,1-57.4-23.94,44.63,44.63,0,0,1-59.07-42.25,45.13,45.13,0,0,1,.92-9.06A44.63,44.63,0,0,1,53,251.79,54.87,54.87,0,0,1,27.94,186.5a59.08,59.08,0,0,0,9.87,96,48.09,48.09,0,0,0,35.7,59.68,48.1,48.1,0,0,0,62.64,55.27A48.1,48.1,0,0,0,198,423.21a59.12,59.12,0,0,0,104,0,48.1,48.1,0,0,0,61.84-25.78,48.12,48.12,0,0,0,62.64-55.27,48.09,48.09,0,0,0,35.7-59.68A59.06,59.06,0,0,0,492.28,231Z"/><path class="cls-3" d="M312.19,177.27a108.35,108.35,0,0,1,10.66,35.58,38,38,0,0,0,51.31-35.58Z"/><path class="cls-3" d="M187.81,177.27h-62a38,38,0,0,0,51.31,35.58A108.35,108.35,0,0,1,187.81,177.27Z"/><path class="cls-4" d="M299.89,158.76a22,22,0,0,1-21.42-5.34,35.76,35.76,0,0,1-57.21,0A21.91,21.91,0,0,1,206,159.63a21.65,21.65,0,0,1-5.89-.81c-14.62,17-23.79,41.37-23.79,68.43,0,51.39,33,93,73.73,93s73.73-41.65,73.73-93C323.73,200.16,314.54,175.77,299.89,158.76Z"/><path class="cls-5" d="M250,284.29c-35.82,0-65.67-32.24-72.33-75a117.07,117.07,0,0,0-1.4,17.93c0,51.39,33,93,73.73,93s73.73-41.65,73.73-93a117.07,117.07,0,0,0-1.4-17.93C315.67,252.05,285.82,284.29,250,284.29Z"/><path class="cls-3" d="M319.65,426.56v43.58a22.1,22.1,0,0,0,44.2,0V397.43A48.08,48.08,0,0,1,319.65,426.56Z"/><path class="cls-3" d="M136.15,397.43v72.71a22.1,22.1,0,0,0,44.2,0V426.56A48.08,48.08,0,0,1,136.15,397.43Z"/><path class="cls-6" d="M492.28,231a59.06,59.06,0,0,0-30.09-51.49,48.09,48.09,0,0,0-35.7-59.68,48.1,48.1,0,0,0-62.64-55.27A48.07,48.07,0,0,0,302,38.77a59.12,59.12,0,0,0-104,0,48.07,48.07,0,0,0-61.84,25.78,48.12,48.12,0,0,0-62.64,55.27,48.09,48.09,0,0,0-35.7,59.68,59.1,59.1,0,0,0,0,103,48.09,48.09,0,0,0,35.7,59.68,48.1,48.1,0,0,0,62.64,55.27A48.1,48.1,0,0,0,198,423.21a59.12,59.12,0,0,0,104,0,48.1,48.1,0,0,0,61.84-25.78,48.12,48.12,0,0,0,62.64-55.27,48.09,48.09,0,0,0,35.7-59.68A59.06,59.06,0,0,0,492.28,231Z"/><path class="cls-6" d="M319.65,426.56v43.58a22.1,22.1,0,0,0,44.2,0V397.43A48.08,48.08,0,0,1,319.65,426.56Z"/><path class="cls-6" d="M136.15,397.43v72.71a22.1,22.1,0,0,0,44.2,0V426.56A48.08,48.08,0,0,1,136.15,397.43Z"/><path class="cls-6" d="M312.19,177.27a108.35,108.35,0,0,1,10.66,35.58,38,38,0,0,0,51.31-35.58Z"/><path class="cls-6" d="M187.81,177.27h-62a38,38,0,0,0,51.31,35.58A108.35,108.35,0,0,1,187.81,177.27Z"/><line class="cls-6" x1="208.02" y1="224.48" x2="227.7" y2="224.48"/><line class="cls-6" x1="272.61" y1="224.48" x2="292.29" y2="224.48"/><path class="cls-2" d="M293.78,115.59a21.9,21.9,0,0,0-10.8,2.84,35.77,35.77,0,0,0-66.22,0,22,22,0,1,0,4.5,35,35.76,35.76,0,0,0,57.21,0,22,22,0,1,0,15.31-37.83Z"/><path class="cls-6" d="M293.78,115.59a21.9,21.9,0,0,0-10.8,2.84,35.77,35.77,0,0,0-66.22,0,22,22,0,1,0,4.5,35,35.76,35.76,0,0,0,57.21,0,22,22,0,1,0,15.31-37.83Z"/><path class="cls-6" d="M299.89,158.76a22,22,0,0,1-21.42-5.34,35.76,35.76,0,0,1-57.21,0A21.91,21.91,0,0,1,206,159.63a21.65,21.65,0,0,1-5.89-.81c-14.62,17-23.79,41.37-23.79,68.43,0,51.39,33,93,73.73,93s73.73-41.65,73.73-93C323.73,200.16,314.54,175.77,299.89,158.76Z"/></svg>